<?xml version="1.0" encoding="utf-8"?>
<!-- Generator: Adobe Illustrator 26.2.1, SVG Export Plug-In . SVG Version: 6.00 Build 0)  -->
<svg version="1.1" id="Layer_1" xmlns="http://www.w3.org/2000/svg" xmlns:xlink="http://www.w3.org/1999/xlink" x="0px" y="0px"
	 viewBox="0 0 563.6 328.6" style="enable-background:new 0 0 563.6 328.6;" xml:space="preserve">
<style type="text/css">
	.st0{fill:none;stroke:#0DAB76;stroke-width:0.432;stroke-linecap:round;stroke-miterlimit:11.3386;}
	.st1{fill:#808080;}
	.st2{font-family:'ArialMT';}
	.st3{font-size:5.544px;}
	.st4{fill:#0DAB76;}
	.st5{fill:none;stroke:#C90D0C;stroke-width:0.432;stroke-linecap:round;stroke-miterlimit:11.3386;}
	.st6{fill:none;stroke:#C90D0C;stroke-width:0.72;stroke-linecap:round;stroke-miterlimit:11.3386;}
	.st7{fill:none;stroke:#C90D0C;stroke-width:0.72;stroke-miterlimit:11.3386;}
	.st8{fill:none;stroke:#C90D0C;stroke-width:0.576;stroke-linecap:round;stroke-miterlimit:11.3386;}
	.st9{font-size:4.752px;}
	.st10{fill:none;stroke:#C90D0C;stroke-width:1.728;stroke-linecap:round;stroke-miterlimit:11.3386;}
	.st11{fill:#C90D0C;}
	.st12{enable-background:new    ;}
	.st13{font-size:3.96px;}
	.st14{fill:none;stroke:#C90D0C;stroke-width:0.36;stroke-linecap:round;stroke-miterlimit:11.3386;}
	.st15{font-size:3.168px;}
	.st16{fill:none;stroke:#C90D0C;stroke-width:0.504;stroke-linecap:round;stroke-miterlimit:11.3386;}
</style>
<desc>generated by eagle2svg 1.2, developed by http://www.nicai-systems.de</desc>
<line class="st0" x1="411" y1="24.2" x2="411" y2="38.6"/>
<line class="st0" x1="516.3" y1="182.2" x2="516.3" y2="189.4"/>
<line class="st0" x1="307.5" y1="182.2" x2="307.5" y2="189.4"/>
<line class="st0" x1="343.5" y1="182.2" x2="343.5" y2="189.4"/>
<line class="st0" x1="429.9" y1="182.2" x2="429.9" y2="189.4"/>
<line class="st0" x1="465.9" y1="182.2" x2="465.9" y2="196.6"/>
<line class="st0" x1="288.6" y1="45.8" x2="303" y2="45.8"/>
<line class="st0" x1="303" y1="45.8" x2="303" y2="24.2"/>
<line class="st0" x1="192.3" y1="225.4" x2="242.7" y2="225.4"/>
<line class="st0" x1="242.7" y1="225.4" x2="242.7" y2="261.4"/>
<text transform="matrix(1 0 0 1 199.5494 225.4414)" class="st1 st2 st3">ALARM_OFF</text>
<line class="st0" x1="307.5" y1="283" x2="307.5" y2="261.4"/>
<line class="st0" x1="288.6" y1="74.6" x2="303" y2="74.6"/>
<line class="st0" x1="303" y1="74.6" x2="303" y2="89"/>
<line class="st0" x1="429.9" y1="283" x2="429.9" y2="261.4"/>
<line class="st0" x1="411" y1="89" x2="411" y2="81.8"/>
<line class="st0" x1="516.3" y1="283" x2="516.3" y2="275.8"/>
<line class="st0" x1="192.3" y1="254.2" x2="228.3" y2="254.2"/>
<text transform="matrix(1 0 0 1 199.5494 254.2403)" class="st1 st2 st3">HAPTIC3V</text>
<line class="st0" x1="386.7" y1="247" x2="350.7" y2="247"/>
<text transform="matrix(1 0 0 1 350.7496 247.041)" class="st1 st2 st3">HAPTIC3V</text>
<line class="st0" x1="307.5" y1="218.2" x2="307.5" y2="225.4"/>
<line class="st0" x1="307.5" y1="225.4" x2="307.5" y2="232.6"/>
<line class="st0" x1="307.5" y1="225.4" x2="343.5" y2="225.4"/>
<line class="st0" x1="343.5" y1="225.4" x2="343.5" y2="218.2"/>
<circle class="st4" cx="307.5" cy="225.4" r="1.4"/>
<line class="st0" x1="48.3" y1="139" x2="48.3" y2="218.2"/>
<line class="st0" x1="48.3" y1="218.2" x2="84.3" y2="218.2"/>
<line class="st0" x1="429.9" y1="218.2" x2="429.9" y2="225.4"/>
<line class="st0" x1="429.9" y1="225.4" x2="429.9" y2="232.6"/>
<line class="st0" x1="429.9" y1="225.4" x2="465.9" y2="225.4"/>
<line class="st0" x1="465.9" y1="211" x2="465.9" y2="225.4"/>
<circle class="st4" cx="429.9" cy="225.4" r="1.4"/>
<line class="st0" x1="55.5" y1="139" x2="55.5" y2="225.4"/>
<line class="st0" x1="55.5" y1="225.4" x2="84.3" y2="225.4"/>
<line class="st0" x1="516.3" y1="218.2" x2="516.3" y2="232.6"/>
<line class="st0" x1="516.3" y1="232.6" x2="516.3" y2="247"/>
<line class="st0" x1="516.3" y1="232.6" x2="559.5" y2="232.6"/>
<circle class="st4" cx="516.3" cy="232.6" r="1.4"/>
<text transform="matrix(1 0 0 1 530.7496 232.6407)" class="st1 st2 st3">PHOTO3V</text>
<line class="st0" x1="192.3" y1="182.2" x2="228.3" y2="182.2"/>
<text transform="matrix(1 0 0 1 199.5494 182.2403)" class="st1 st2 st3">PHOTO3V</text>
<line class="st0" x1="192.3" y1="247" x2="264.3" y2="247"/>
<text transform="matrix(1 0 0 1 199.5494 247.041)" class="st1 st2 st3">PIEZO3V</text>
<line class="st0" x1="288.6" y1="60.2" x2="331.8" y2="60.2"/>
<line class="st0" x1="331.8" y1="60.2" x2="331.8" y2="24.2"/>
<line class="st5" x1="303" y1="24.2" x2="303" y2="17"/>
<line class="st6" x1="306.6" y1="22.4" x2="303" y2="17"/>
<line class="st6" x1="303" y1="17" x2="299.4" y2="22.4"/>
<text transform="matrix(1 0 0 1 303.0502 13.4004)" class="st1 st2 st3">3V3</text>
<line class="st5" x1="411" y1="24.2" x2="411" y2="17"/>
<line class="st6" x1="414.6" y1="22.4" x2="411" y2="17"/>
<line class="st6" x1="411" y1="17" x2="407.4" y2="22.4"/>
<text transform="matrix(1 0 0 1 411.0502 13.4004)" class="st1 st2 st3">3V3</text>
<line class="st5" x1="516.3" y1="182.2" x2="516.3" y2="175"/>
<line class="st6" x1="519.9" y1="180.4" x2="516.3" y2="175"/>
<line class="st6" x1="516.3" y1="175" x2="512.7" y2="180.4"/>
<text transform="matrix(1 0 0 1 516.3502 171.4414)" class="st1 st2 st3">3V3</text>
<line class="st5" x1="465.9" y1="211" x2="465.9" y2="203.8"/>
<line class="st5" x1="465.9" y1="196.6" x2="465.9" y2="203.8"/>
<line class="st6" x1="469.5" y1="207.4" x2="465.9" y2="200.2"/>
<line class="st6" x1="465.9" y1="200.2" x2="462.3" y2="207.4"/>
<line class="st6" x1="462.3" y1="200.2" x2="465.9" y2="200.2"/>
<line class="st6" x1="462.3" y1="207.4" x2="469.5" y2="207.4"/>
<line class="st6" x1="465.9" y1="200.2" x2="469.5" y2="200.2"/>
<text transform="matrix(6.123234e-17 -1 1 6.123234e-17 464.5807 218.2403)" class="st1 st2 st3">D1</text>
<text transform="matrix(6.123234e-17 -1 1 6.123234e-17 477.901 220.041)" class="st1 st2 st3">1N4148</text>
<line class="st5" x1="307.5" y1="283" x2="307.5" y2="290.2"/>
<line class="st6" x1="302.1" y1="290.2" x2="312.9" y2="290.2"/>
<text transform="matrix(1 0 0 1 307.5494 297.4405)" class="st1 st2 st3">GND</text>
<line class="st5" x1="303" y1="89" x2="303" y2="96.2"/>
<line class="st6" x1="297.6" y1="96.2" x2="308.4" y2="96.2"/>
<text transform="matrix(1 0 0 1 303.0502 103.4005)" class="st1 st2 st3">GND</text>
<line class="st5" x1="429.9" y1="283" x2="429.9" y2="290.2"/>
<line class="st6" x1="424.5" y1="290.2" x2="435.3" y2="290.2"/>
<text transform="matrix(1 0 0 1 429.9498 297.4405)" class="st1 st2 st3">GND</text>
<line class="st5" x1="411" y1="89" x2="411" y2="96.2"/>
<line class="st6" x1="405.6" y1="96.2" x2="416.4" y2="96.2"/>
<text transform="matrix(1 0 0 1 411.0502 103.4005)" class="st1 st2 st3">GND</text>
<line class="st5" x1="516.3" y1="283" x2="516.3" y2="290.2"/>
<line class="st6" x1="510.9" y1="290.2" x2="521.7" y2="290.2"/>
<text transform="matrix(1 0 0 1 516.3502 297.4405)" class="st1 st2 st3">GND</text>
<line class="st5" x1="242.7" y1="290.2" x2="242.7" y2="297.4"/>
<line class="st6" x1="237.3" y1="297.4" x2="248.1" y2="297.4"/>
<text transform="matrix(1 0 0 1 242.7496 304.6407)" class="st1 st2 st3">GND</text>
<circle class="st7" cx="429.9" cy="203.8" r="5.8"/>
<line class="st8" x1="426.3" y1="193" x2="426.3" y2="198.8"/>
<line class="st8" x1="426.3" y1="193" x2="429.9" y2="193"/>
<line class="st8" x1="429.9" y1="193" x2="433.5" y2="193"/>
<line class="st8" x1="433.5" y1="193" x2="433.5" y2="198.8"/>
<line class="st8" x1="433.5" y1="214.6" x2="433.5" y2="208.9"/>
<line class="st8" x1="433.5" y1="214.6" x2="429.9" y2="214.6"/>
<line class="st8" x1="429.9" y1="214.6" x2="426.3" y2="214.6"/>
<line class="st8" x1="426.3" y1="214.6" x2="426.3" y2="208.9"/>
<line class="st5" x1="429.9" y1="189.4" x2="429.9" y2="193"/>
<line class="st5" x1="429.9" y1="218.2" x2="429.9" y2="214.6"/>
<line class="st5" x1="430.7" y1="194.5" x2="429.2" y2="194.5"/>
<line class="st5" x1="429.9" y1="193.8" x2="429.9" y2="195.2"/>
<line class="st5" x1="430.7" y1="213.2" x2="429.2" y2="213.2"/>
<text transform="matrix(1 0 0 1 413.2487 208.8809)" class="st1 st2 st3">M1</text>
<text transform="matrix(1 0 0 1 385.2174 216.0801)" class="st1 st2 st3">HAPTIC10MM</text>
<line class="st5" x1="84.3" y1="239.8" x2="98.7" y2="239.8"/>
<text transform="matrix(1 0 0 1 105.3736 242.001)" class="st1 st2 st9">!RST</text>
<text transform="matrix(1 0 0 1 89.483 238.833)" class="st1 st2 st9">1</text>
<line class="st5" x1="192.3" y1="167.8" x2="177.9" y2="167.8"/>
<text transform="matrix(1 0 0 1 139.8951 170)" class="st1 st2 st9">A0/DAC2/IO26</text>
<text transform="matrix(1 0 0 1 184.5738 166.8321)" class="st1 st2 st9">5</text>
<line class="st5" x1="192.3" y1="175" x2="177.9" y2="175"/>
<text transform="matrix(1 0 0 1 139.8951 177.2012)" class="st1 st2 st9">A1/DAC1/IO25</text>
<text transform="matrix(1 0 0 1 184.5738 174.0332)" class="st1 st2 st9">6</text>
<line class="st5" x1="192.3" y1="182.2" x2="177.9" y2="182.2"/>
<text transform="matrix(1 0 0 1 157.5875 184.4004)" class="st1 st2 st9">A2/I34</text>
<text transform="matrix(1 0 0 1 184.5738 181.2325)" class="st1 st2 st9">7</text>
<line class="st5" x1="192.3" y1="189.4" x2="177.9" y2="189.4"/>
<text transform="matrix(1 0 0 1 157.5875 191.5996)" class="st1 st2 st9">A3/I39</text>
<text transform="matrix(1 0 0 1 184.5738 188.4317)" class="st1 st2 st9">8</text>
<line class="st5" x1="192.3" y1="196.6" x2="177.9" y2="196.6"/>
<text transform="matrix(1 0 0 1 157.5875 198.8008)" class="st1 st2 st9">A4/I36</text>
<text transform="matrix(1 0 0 1 184.5738 195.6328)" class="st1 st2 st9">9</text>
<line class="st5" x1="192.3" y1="203.8" x2="177.9" y2="203.8"/>
<text transform="matrix(1 0 0 1 156.5338 206)" class="st1 st2 st9">A5/IO4</text>
<text transform="matrix(1 0 0 1 184.5738 202.8321)" class="st1 st2 st9">10</text>
<line class="st5" x1="192.3" y1="218.2" x2="177.9" y2="218.2"/>
<text transform="matrix(1 0 0 1 153.8912 220.4004)" class="st1 st2 st9">A6/IO14</text>
<text transform="matrix(1 0 0 1 184.5738 217.2325)" class="st1 st2 st9">19</text>
<line class="st5" x1="192.3" y1="225.4" x2="177.9" y2="225.4"/>
<text transform="matrix(1 0 0 1 153.8912 227.6006)" class="st1 st2 st9">A7/IO32</text>
<text transform="matrix(1 0 0 1 184.5738 224.4317)" class="st1 st2 st9">20</text>
<line class="st5" x1="192.3" y1="232.6" x2="177.9" y2="232.6"/>
<text transform="matrix(1 0 0 1 153.8912 234.8008)" class="st1 st2 st9">A8/IO15</text>
<text transform="matrix(1 0 0 1 184.5738 231.6328)" class="st1 st2 st9">21</text>
<line class="st5" x1="192.3" y1="239.8" x2="177.9" y2="239.8"/>
<text transform="matrix(1 0 0 1 153.8912 242.001)" class="st1 st2 st9">A9/IO33</text>
<text transform="matrix(1 0 0 1 184.5738 238.833)" class="st1 st2 st9">22</text>
<line class="st5" x1="192.3" y1="247" x2="177.9" y2="247"/>
<text transform="matrix(1 0 0 1 151.2477 249.2002)" class="st1 st2 st9">A10/IO27</text>
<text transform="matrix(1 0 0 1 184.5738 246.0323)" class="st1 st2 st9">23</text>
<line class="st5" x1="192.3" y1="254.2" x2="177.9" y2="254.2"/>
<text transform="matrix(1 0 0 1 151.6012 256.4004)" class="st1 st2 st9">A11/IO12</text>
<text transform="matrix(1 0 0 1 184.5738 253.2325)" class="st1 st2 st9">24</text>
<line class="st5" x1="192.3" y1="261.4" x2="177.9" y2="261.4"/>
<text transform="matrix(1 0 0 1 151.2477 263.6006)" class="st1 st2 st9">A12/IO13</text>
<text transform="matrix(1 0 0 1 184.5738 260.4326)" class="st1 st2 st9">25</text>
<line class="st5" x1="84.3" y1="225.4" x2="98.7" y2="225.4"/>
<text transform="matrix(1 0 0 1 105.3736 227.6006)" class="st1 st2 st9">I2C_SCL</text>
<text transform="matrix(1 0 0 1 86.8404 224.4317)" class="st1 st2 st9">18</text>
<line class="st5" x1="84.3" y1="218.2" x2="98.7" y2="218.2"/>
<text transform="matrix(1 0 0 1 105.3736 220.4004)" class="st1 st2 st9">I2C_SDA</text>
<text transform="matrix(1 0 0 1 86.8404 217.2325)" class="st1 st2 st9">17</text>
<line class="st5" x1="84.3" y1="254.2" x2="98.7" y2="254.2"/>
<text transform="matrix(1 0 0 1 105.3736 256.4004)" class="st1 st2 st9">IO21</text>
<text transform="matrix(1 0 0 1 86.8404 253.2325)" class="st1 st2 st9">16</text>
<line class="st5" x1="192.3" y1="275.8" x2="177.9" y2="275.8"/>
<text transform="matrix(1 0 0 1 150.4596 278.001)" class="st1 st2 st9">RX2/IO16</text>
<text transform="matrix(1 0 0 1 184.5738 274.833)" class="st1 st2 st9">14</text>
<line class="st5" x1="84.3" y1="196.6" x2="98.7" y2="196.6"/>
<text transform="matrix(1 0 0 1 105.3736 198.8008)" class="st1 st2 st9">SPI_MISO</text>
<text transform="matrix(1 0 0 1 86.8404 195.6328)" class="st1 st2 st9">13</text>
<line class="st5" x1="84.3" y1="182.2" x2="98.7" y2="182.2"/>
<text transform="matrix(1 0 0 1 105.3736 184.4004)" class="st1 st2 st9">SPI_SCK</text>
<text transform="matrix(1 0 0 1 87.193 181.2325)" class="st1 st2 st9">11</text>
<line class="st5" x1="84.3" y1="189.4" x2="98.7" y2="189.4"/>
<text transform="matrix(1 0 0 1 105.3736 191.5996)" class="st1 st2 st9">SPI_\MOSI</text>
<text transform="matrix(1 0 0 1 86.8404 188.4317)" class="st1 st2 st9">12</text>
<line class="st5" x1="192.3" y1="283" x2="177.9" y2="283"/>
<text transform="matrix(1 0 0 1 150.9879 285.2002)" class="st1 st2 st9">TX2/IO17</text>
<text transform="matrix(1 0 0 1 184.5738 282.0323)" class="st1 st2 st9">15</text>
<line class="st6" x1="120.3" y1="290.2" x2="177.9" y2="290.2"/>
<line class="st6" x1="177.9" y1="290.2" x2="177.9" y2="160.6"/>
<line class="st6" x1="177.9" y1="160.6" x2="98.7" y2="160.6"/>
<line class="st6" x1="98.7" y1="160.6" x2="98.7" y2="268.6"/>
<line class="st6" x1="98.7" y1="268.6" x2="98.7" y2="290.2"/>
<line class="st6" x1="120.3" y1="268.6" x2="98.7" y2="268.6"/>
<line class="st6" x1="120.3" y1="290.2" x2="98.7" y2="290.2"/>
<line class="st6" x1="120.3" y1="268.6" x2="120.3" y2="290.2"/>
<line class="st10" x1="116" y1="275.8" x2="119.6" y2="275.8"/>
<line class="st10" x1="116" y1="283" x2="119.6" y2="283"/>
<line class="st10" x1="116" y1="279.4" x2="119.6" y2="279.4"/>
<line class="st10" x1="116" y1="272.2" x2="119.6" y2="272.2"/>
<line class="st10" x1="116" y1="286.6" x2="119.6" y2="286.6"/>
<text transform="matrix(6.123234e-17 -1 1 6.123234e-17 110.9899 286.6407)" class="st11 st2 st3">USB</text>
<text transform="matrix(1 0 0 1 97.7319 300.6048)" class="st12"><tspan x="0" y="0" class="st1 st2 st13">I2C pins don&apos;t have pull-up resistors </tspan><tspan x="0" y="4.8" class="st1 st2 st13">USB Serial uses IO3 for RX0, and IO1 for TX0</tspan><tspan x="0" y="9.5" class="st1 st2 st13">IO12 has pull-down resistor (use only for output)</tspan><tspan x="0" y="14.3" class="st1 st2 st13">IO13 is connected to red LED</tspan><tspan x="0" y="19" class="st1 st2 st13">Read the BAT voltage from A13 and double it</tspan></text>
<text transform="matrix(1 0 0 1 98.7496 157.041)" class="st1 st2 st3">PCB1A</text>
<line class="st5" x1="288.6" y1="45.8" x2="274.2" y2="45.8"/>
<text transform="matrix(1 0 0 1 261.8139 47.961)" class="st1 st2 st9">3V</text>
<text transform="matrix(1 0 0 1 280.8734 44.793)" class="st1 st2 st9">2</text>
<line class="st5" x1="202.2" y1="45.8" x2="216.6" y2="45.8"/>
<text transform="matrix(1 0 0 1 223.2738 47.961)" class="st1 st2 st9">BAT</text>
<text transform="matrix(1 0 0 1 204.7396 44.793)" class="st1 st2 st9">28</text>
<line class="st5" x1="202.2" y1="53" x2="216.6" y2="53"/>
<text transform="matrix(1 0 0 1 223.2738 55.1602)" class="st1 st2 st9">EN</text>
<text transform="matrix(1 0 0 1 204.7396 51.9922)" class="st1 st2 st9">27</text>
<line class="st5" x1="288.6" y1="74.6" x2="274.2" y2="74.6"/>
<text transform="matrix(1 0 0 1 257.0658 76.7598)" class="st1 st2 st9">GND</text>
<text transform="matrix(1 0 0 1 280.8734 73.5919)" class="st1 st2 st9">4</text>
<line class="st5" x1="288.6" y1="60.2" x2="274.2" y2="60.2"/>
<text transform="matrix(1 0 0 1 256.5346 62.3594)" class="st1 st2 st9">\USB</text>
<text transform="matrix(1 0 0 1 280.8734 59.1915)" class="st1 st2 st9">26</text>
<line class="st6" x1="216.6" y1="81.8" x2="238.2" y2="81.8"/>
<line class="st6" x1="238.2" y1="81.8" x2="274.2" y2="81.8"/>
<line class="st6" x1="274.2" y1="81.8" x2="274.2" y2="38.6"/>
<line class="st6" x1="274.2" y1="38.6" x2="216.6" y2="38.6"/>
<line class="st6" x1="216.6" y1="38.6" x2="216.6" y2="60.2"/>
<line class="st6" x1="216.6" y1="60.2" x2="216.6" y2="81.8"/>
<line class="st6" x1="238.2" y1="60.2" x2="216.6" y2="60.2"/>
<line class="st10" x1="233.9" y1="74.6" x2="237.5" y2="74.6"/>
<line class="st10" x1="233.9" y1="67.4" x2="237.5" y2="67.4"/>
<line class="st6" x1="238.2" y1="60.2" x2="238.2" y2="81.8"/>
<text transform="matrix(6.123234e-17 -1 1 6.123234e-17 228.8891 77.4805)" class="st11 st2 st3">BAT</text>
<text transform="matrix(1 0 0 1 216.6498 35.0001)" class="st1 st2 st3">PCB1P</text>
<line class="st5" x1="48.3" y1="139" x2="48.3" y2="124.6"/>
<text transform="matrix(6.123234e-17 -1 1 6.123234e-17 50.5094 118.0157)" class="st1 st2 st9">SDA</text>
<text transform="matrix(6.123234e-17 -1 1 6.123234e-17 47.3414 136.5489)" class="st1 st2 st9">17</text>
<line class="st5" x1="55.5" y1="139" x2="55.5" y2="124.6"/>
<text transform="matrix(6.123234e-17 -1 1 6.123234e-17 57.7086 118.0157)" class="st1 st2 st9">SDC</text>
<text transform="matrix(6.123234e-17 -1 1 6.123234e-17 54.5406 136.5489)" class="st1 st2 st9">18</text>
<line class="st6" x1="5.1" y1="88.6" x2="105.9" y2="88.6"/>
<line class="st6" x1="105.9" y1="88.6" x2="105.9" y2="124.6"/>
<line class="st6" x1="5.1" y1="124.6" x2="5.1" y2="88.6"/>
<line class="st6" x1="5.1" y1="124.6" x2="105.9" y2="124.6"/>
<line class="st14" x1="10.5" y1="94" x2="100.5" y2="94"/>
<line class="st14" x1="100.5" y1="94" x2="100.5" y2="119.2"/>
<line class="st14" x1="100.5" y1="119.2" x2="10.5" y2="119.2"/>
<line class="st14" x1="10.5" y1="119.2" x2="10.5" y2="94"/>
<text transform="matrix(1 0 0 1 5.15 86.8399)" class="st1 st2 st3">FEATHER-OLED</text>
<text transform="matrix(1 0 0 1 5.15 79.6407)" class="st1 st2 st3">PCB2+</text>
<line class="st5" x1="411" y1="81.8" x2="411" y2="67.4"/>
<text transform="matrix(6.123234e-17 -1 1 6.123234e-17 410.0414 76.6661)" class="st1 st2 st9">4</text>
<line class="st5" x1="411" y1="38.6" x2="411" y2="53"/>
<text transform="matrix(6.123234e-17 -1 1 6.123234e-17 410.0414 46.3751)" class="st1 st2 st9">2</text>
<text transform="matrix(6.123234e-17 -1 1 6.123234e-17 415.3695 67.4005)" class="st1 st2 st15">GND</text>
<text transform="matrix(6.123234e-17 -1 1 6.123234e-17 415.3695 53.0001)" class="st1 st2 st15">3V3</text>
<text transform="matrix(1 0 0 1 411.0502 62.3594)" class="st1 st2 st3">PCB2P</text>
<polygon class="st11" points="505.2,202.8 502.7,201.7 504.1,200.2 "/>
<polygon class="st11" points="504.8,206 502.3,204.9 503.7,203.5 "/>
<rect x="508.4" y="196.6" class="st11" width="2.2" height="14.4"/>
<line class="st5" x1="516.3" y1="189.4" x2="516.3" y2="196.6"/>
<line class="st5" x1="516.3" y1="218.2" x2="516.3" y2="211"/>
<line class="st5" x1="501.2" y1="198.8" x2="505.2" y2="202.8"/>
<line class="st5" x1="500.9" y1="202" x2="504.8" y2="206"/>
<line class="st5" x1="516.3" y1="196.6" x2="510.6" y2="199.5"/>
<line class="st5" x1="514.2" y1="208.2" x2="516.3" y2="211"/>
<line class="st5" x1="516.3" y1="211" x2="512.7" y2="211"/>
<line class="st5" x1="512.7" y1="211" x2="514.2" y2="208.2"/>
<line class="st5" x1="513.5" y1="209.6" x2="510" y2="207.9"/>
<line class="st6" x1="513.5" y1="210.7" x2="515.6" y2="210.7"/>
<line class="st6" x1="515.6" y1="210.7" x2="514.2" y2="208.9"/>
<line class="st6" x1="514.2" y1="208.9" x2="513.5" y2="210.3"/>
<line class="st6" x1="513.5" y1="210.3" x2="514.5" y2="210.3"/>
<line class="st6" x1="514.5" y1="210.3" x2="514.2" y2="209.6"/>
<text transform="matrix(1 0 0 1 523.5494 203.8399)" class="st1 st2 st3">Q1</text>
<text transform="matrix(1 0 0 1 523.5494 211.041)" class="st1 st2 st3">HW5P-1</text>
<line class="st5" x1="264.3" y1="247" x2="271.5" y2="247"/>
<line class="st5" x1="293.1" y1="247" x2="285.9" y2="247"/>
<line class="st6" x1="271.5" y1="249.6" x2="285.9" y2="249.6"/>
<line class="st6" x1="285.9" y1="244.5" x2="271.5" y2="244.5"/>
<line class="st6" x1="285.9" y1="249.6" x2="285.9" y2="244.5"/>
<line class="st6" x1="271.5" y1="249.6" x2="271.5" y2="244.5"/>
<text transform="matrix(1 0 0 1 267.9498 242.793)" class="st1 st2 st3">R1</text>
<text transform="matrix(1 0 0 1 267.9498 256.4004)" class="st1 st2 st3">1k</text>
<line class="st5" x1="343.5" y1="218.2" x2="343.5" y2="211"/>
<line class="st5" x1="343.5" y1="189.4" x2="343.5" y2="196.6"/>
<line class="st6" x1="346.1" y1="211" x2="346.1" y2="196.6"/>
<line class="st6" x1="341" y1="196.6" x2="341" y2="211"/>
<line class="st6" x1="346.1" y1="196.6" x2="341" y2="196.6"/>
<line class="st6" x1="346.1" y1="211" x2="341" y2="211"/>
<text transform="matrix(6.123234e-17 -1 1 6.123234e-17 339.3004 214.6407)" class="st1 st2 st3">R2</text>
<text transform="matrix(6.123234e-17 -1 1 6.123234e-17 352.9088 214.6407)" class="st1 st2 st3">1k</text>
<line class="st5" x1="386.7" y1="247" x2="393.9" y2="247"/>
<line class="st5" x1="415.5" y1="247" x2="408.3" y2="247"/>
<line class="st6" x1="393.9" y1="249.6" x2="408.3" y2="249.6"/>
<line class="st6" x1="408.3" y1="244.5" x2="393.9" y2="244.5"/>
<line class="st6" x1="408.3" y1="249.6" x2="408.3" y2="244.5"/>
<line class="st6" x1="393.9" y1="249.6" x2="393.9" y2="244.5"/>
<text transform="matrix(1 0 0 1 390.3502 242.793)" class="st1 st2 st3">R3</text>
<text transform="matrix(1 0 0 1 390.3502 256.4004)" class="st1 st2 st3">1k</text>
<line class="st5" x1="516.3" y1="275.8" x2="516.3" y2="268.6"/>
<line class="st5" x1="516.3" y1="247" x2="516.3" y2="254.2"/>
<line class="st6" x1="518.9" y1="268.6" x2="518.9" y2="254.2"/>
<line class="st6" x1="513.8" y1="254.2" x2="513.8" y2="268.6"/>
<line class="st6" x1="518.9" y1="254.2" x2="513.8" y2="254.2"/>
<line class="st6" x1="518.9" y1="268.6" x2="513.8" y2="268.6"/>
<text transform="matrix(6.123234e-17 -1 1 6.123234e-17 512.1012 272.2403)" class="st1 st2 st3">R4</text>
<text transform="matrix(6.123234e-17 -1 1 6.123234e-17 525.7096 272.2403)" class="st1 st2 st3">1k5</text>
<line class="st5" x1="242.7" y1="290.2" x2="242.7" y2="283"/>
<line class="st5" x1="242.7" y1="261.4" x2="242.7" y2="268.6"/>
<line class="st6" x1="239.1" y1="283" x2="239.1" y2="275.8"/>
<line class="st6" x1="239.1" y1="275.8" x2="239.1" y2="268.6"/>
<line class="st6" x1="236.3" y1="277.6" x2="236.3" y2="275.8"/>
<line class="st6" x1="236.3" y1="275.8" x2="236.3" y2="274"/>
<line class="st6" x1="239.1" y1="275.8" x2="236.3" y2="275.8"/>
<text transform="matrix(6.123234e-17 -1 1 6.123234e-17 232.6695 283.041)" class="st1 st2 st13">SW1</text>
<text transform="matrix(6.123234e-17 -1 1 6.123234e-17 249.2301 283.041)" class="st1 st2 st13">ALARM_OFF</text>
<rect x="299.6" y="239.8" class="st11" width="2.2" height="14.4"/>
<line class="st5" x1="293.1" y1="247" x2="300.3" y2="247"/>
<line class="st5" x1="307.5" y1="232.6" x2="307.5" y2="239.8"/>
<line class="st5" x1="307.5" y1="261.4" x2="307.5" y2="254.2"/>
<line class="st5" x1="307.5" y1="239.8" x2="301.8" y2="242.7"/>
<line class="st5" x1="305.4" y1="251.4" x2="307.5" y2="254.2"/>
<line class="st5" x1="307.5" y1="254.2" x2="303.9" y2="254.2"/>
<line class="st5" x1="303.9" y1="254.2" x2="305.4" y2="251.4"/>
<line class="st5" x1="304.7" y1="252.8" x2="301.2" y2="251.1"/>
<line class="st6" x1="304.7" y1="253.9" x2="306.8" y2="253.9"/>
<line class="st6" x1="306.8" y1="253.9" x2="305.4" y2="252.1"/>
<line class="st6" x1="305.4" y1="252.1" x2="304.7" y2="253.5"/>
<line class="st6" x1="304.7" y1="253.5" x2="305.7" y2="253.5"/>
<line class="st6" x1="305.7" y1="253.5" x2="305.4" y2="252.8"/>
<text transform="matrix(1 0 0 1 314.7496 247.041)" class="st1 st2 st3">T1</text>
<text transform="matrix(1 0 0 1 314.7496 254.2403)" class="st1 st2 st3">2N2222</text>
<rect x="422" y="239.8" class="st11" width="2.2" height="14.4"/>
<line class="st5" x1="415.5" y1="247" x2="422.7" y2="247"/>
<line class="st5" x1="429.9" y1="232.6" x2="429.9" y2="239.8"/>
<line class="st5" x1="429.9" y1="261.4" x2="429.9" y2="254.2"/>
<line class="st5" x1="429.9" y1="239.8" x2="424.2" y2="242.7"/>
<line class="st5" x1="427.8" y1="251.4" x2="429.9" y2="254.2"/>
<line class="st5" x1="429.9" y1="254.2" x2="426.3" y2="254.2"/>
<line class="st5" x1="426.3" y1="254.2" x2="427.8" y2="251.4"/>
<line class="st5" x1="427.1" y1="252.8" x2="423.6" y2="251.1"/>
<line class="st6" x1="427.1" y1="253.9" x2="429.2" y2="253.9"/>
<line class="st6" x1="429.2" y1="253.9" x2="427.8" y2="252.1"/>
<line class="st6" x1="427.8" y1="252.1" x2="427.1" y2="253.5"/>
<line class="st6" x1="427.1" y1="253.5" x2="428.1" y2="253.5"/>
<line class="st6" x1="428.1" y1="253.5" x2="427.8" y2="252.8"/>
<text transform="matrix(1 0 0 1 437.15 247.041)" class="st1 st2 st3">T2</text>
<text transform="matrix(1 0 0 1 437.15 254.2403)" class="st1 st2 st3">2N2222</text>
<line class="st5" x1="331.8" y1="24.2" x2="331.8" y2="17"/>
<line class="st6" x1="335.4" y1="22.4" x2="331.8" y2="17"/>
<line class="st6" x1="331.8" y1="17" x2="328.2" y2="22.4"/>
<text transform="matrix(1 0 0 1 331.85 13.4004)" class="st1 st2 st3">USB_5V</text>
<line class="st5" x1="307.5" y1="182.2" x2="307.5" y2="175"/>
<line class="st6" x1="311.1" y1="180.4" x2="307.5" y2="175"/>
<line class="st6" x1="307.5" y1="175" x2="303.9" y2="180.4"/>
<text transform="matrix(1 0 0 1 307.5494 171.4414)" class="st1 st2 st3">USB_5V</text>
<line class="st5" x1="343.5" y1="182.2" x2="343.5" y2="175"/>
<line class="st6" x1="347.1" y1="180.4" x2="343.5" y2="175"/>
<line class="st6" x1="343.5" y1="175" x2="339.9" y2="180.4"/>
<text transform="matrix(1 0 0 1 343.5494 171.4414)" class="st1 st2 st3">USB_5V</text>
<line class="st5" x1="429.9" y1="182.2" x2="429.9" y2="175"/>
<line class="st6" x1="433.5" y1="180.4" x2="429.9" y2="175"/>
<line class="st6" x1="429.9" y1="175" x2="426.3" y2="180.4"/>
<text transform="matrix(1 0 0 1 429.9498 171.4414)" class="st1 st2 st3">USB_5V</text>
<line class="st5" x1="465.9" y1="182.2" x2="465.9" y2="175"/>
<line class="st6" x1="469.5" y1="180.4" x2="465.9" y2="175"/>
<line class="st6" x1="465.9" y1="175" x2="462.3" y2="180.4"/>
<text transform="matrix(1 0 0 1 465.9498 171.4414)" class="st1 st2 st3">USB_5V</text>
<line class="st5" x1="307.5" y1="189.4" x2="307.5" y2="196.6"/>
<line class="st5" x1="307.5" y1="218.2" x2="307.5" y2="211"/>
<line class="st6" x1="314.7" y1="202" x2="300.3" y2="202"/>
<line class="st6" x1="300.3" y1="202" x2="300.3" y2="205.6"/>
<line class="st6" x1="300.3" y1="205.6" x2="314.7" y2="205.6"/>
<line class="st6" x1="314.7" y1="205.6" x2="314.7" y2="202"/>
<line class="st6" x1="300.3" y1="200.2" x2="307.5" y2="200.2"/>
<line class="st6" x1="307.5" y1="200.2" x2="314.7" y2="200.2"/>
<line class="st6" x1="300.3" y1="207.4" x2="307.5" y2="207.4"/>
<line class="st6" x1="307.5" y1="207.4" x2="314.7" y2="207.4"/>
<line class="st16" x1="307.5" y1="196.6" x2="307.5" y2="200.2"/>
<line class="st16" x1="307.5" y1="211" x2="307.5" y2="207.4"/>
<text transform="matrix(1 0 0 1 311.15 196.6407)" class="st1 st2 st3">X1</text>
<text transform="matrix(1 0 0 1 311.15 214.6407)" class="st1 st2 st3">PIEZO</text>
</svg>
