<?xml version="1.0" encoding="utf-8"?>
<!-- Generator: Adobe Illustrator 26.2.1, SVG Export Plug-In . SVG Version: 6.00 Build 0)  -->
<svg version="1.1" id="Layer_1" xmlns="http://www.w3.org/2000/svg" xmlns:xlink="http://www.w3.org/1999/xlink" x="0px" y="0px"
	 viewBox="0 0 487 295.5" style="enable-background:new 0 0 487 295.5;" xml:space="preserve">
<style type="text/css">
	.st0{fill:none;stroke:#0DAB76;stroke-width:0.432;stroke-linecap:round;stroke-miterlimit:11.3386;}
	.st1{fill:#808080;}
	.st2{font-family:'ArialMT';}
	.st3{font-size:5.544px;}
	.st4{fill:#0DAB76;}
	.st5{fill:none;stroke:#C90D0C;stroke-width:0.432;stroke-linecap:round;stroke-miterlimit:11.3386;}
	.st6{fill:none;stroke:#C90D0C;stroke-width:0.72;stroke-linecap:round;stroke-miterlimit:11.3386;}
	.st7{fill:none;stroke:#C90D0C;stroke-width:0.72;stroke-miterlimit:11.3386;}
	.st8{fill:none;stroke:#C90D0C;stroke-width:0.576;stroke-linecap:round;stroke-miterlimit:11.3386;}
	.st9{font-size:4.752px;}
	.st10{fill:none;stroke:#C90D0C;stroke-width:1.728;stroke-linecap:round;stroke-miterlimit:11.3386;}
	.st11{fill:#C90D0C;}
	.st12{enable-background:new    ;}
	.st13{font-size:3.96px;}
	.st14{fill:none;stroke:#C90D0C;stroke-width:0.36;stroke-linecap:round;stroke-miterlimit:11.3386;}
	.st15{font-size:3.168px;}
	.st16{fill:none;stroke:#C90D0C;stroke-width:0.504;stroke-linecap:round;stroke-miterlimit:11.3386;}
</style>
<desc>generated by eagle2svg 1.2, developed by http://www.nicai-systems.de</desc>
<g id="surface0">
	<g>
		<line class="st0" x1="384" y1="18" x2="384" y2="32.4"/>
		<line class="st0" x1="441.6" y1="154.8" x2="441.6" y2="162"/>
	</g>
	<g>
		<line class="st0" x1="232.8" y1="154.8" x2="232.8" y2="162"/>
		<line class="st0" x1="268.8" y1="154.8" x2="268.8" y2="162"/>
		<line class="st0" x1="355.2" y1="154.8" x2="355.2" y2="162"/>
		<line class="st0" x1="391.2" y1="154.8" x2="391.2" y2="169.2"/>
	</g>
	<g>
		<line class="st0" x1="261.6" y1="39.6" x2="276" y2="39.6"/>
		<line class="st0" x1="276" y1="39.6" x2="276" y2="18"/>
	</g>
	<g>
		<line class="st0" x1="124.8" y1="198" x2="175.2" y2="198"/>
		<line class="st0" x1="175.2" y1="198" x2="175.2" y2="234"/>
		<text transform="matrix(1 0 0 1 132.0283 198.0269)" class="st1 st2 st3">ALARM_OFF</text>
	</g>
	<g>
		<line class="st0" x1="232.8" y1="255.6" x2="232.8" y2="234"/>
		<line class="st0" x1="261.6" y1="68.4" x2="276" y2="68.4"/>
		<line class="st0" x1="276" y1="68.4" x2="276" y2="82.8"/>
		<line class="st0" x1="355.2" y1="255.6" x2="355.2" y2="234"/>
		<line class="st0" x1="384" y1="82.8" x2="384" y2="75.6"/>
		<line class="st0" x1="441.6" y1="255.6" x2="441.6" y2="248.4"/>
	</g>
	<g>
		<line class="st0" x1="124.8" y1="226.8" x2="160.8" y2="226.8"/>
		<text transform="matrix(1 0 0 1 132.0283 226.8277)" class="st1 st2 st3">HAPTIC3V</text>
		<line class="st0" x1="312" y1="219.6" x2="276" y2="219.6"/>
		<text transform="matrix(1 0 0 1 276.0284 219.6265)" class="st1 st2 st3">HAPTIC3V</text>
	</g>
	<g>
		<line class="st0" x1="232.8" y1="190.8" x2="232.8" y2="198"/>
		<line class="st0" x1="232.8" y1="198" x2="232.8" y2="205.2"/>
		<line class="st0" x1="232.8" y1="198" x2="268.8" y2="198"/>
		<line class="st0" x1="268.8" y1="198" x2="268.8" y2="190.8"/>
		<circle class="st4" cx="232.8" cy="198" r="1.4"/>
	</g>
	<g>
		<line class="st0" x1="16.8" y1="190.8" x2="9.6" y2="190.8"/>
		<line class="st0" x1="9.6" y1="190.8" x2="9.6" y2="90"/>
		<line class="st0" x1="9.6" y1="90" x2="60" y2="90"/>
		<line class="st0" x1="60" y1="90" x2="60" y2="82.8"/>
	</g>
	<g>
		<line class="st0" x1="355.2" y1="190.8" x2="355.2" y2="198"/>
		<line class="st0" x1="355.2" y1="198" x2="355.2" y2="205.2"/>
		<line class="st0" x1="355.2" y1="198" x2="391.2" y2="198"/>
		<line class="st0" x1="391.2" y1="183.6" x2="391.2" y2="198"/>
		<circle class="st4" cx="355.2" cy="198" r="1.4"/>
	</g>
	<g>
		<line class="st0" x1="16.8" y1="198" x2="2.4" y2="198"/>
		<line class="st0" x1="2.4" y1="198" x2="2.4" y2="97.2"/>
		<line class="st0" x1="2.4" y1="97.2" x2="67.2" y2="97.2"/>
		<line class="st0" x1="67.2" y1="97.2" x2="67.2" y2="82.8"/>
	</g>
	<g>
		<line class="st0" x1="441.6" y1="190.8" x2="441.6" y2="205.2"/>
		<line class="st0" x1="441.6" y1="205.2" x2="441.6" y2="219.6"/>
		<line class="st0" x1="441.6" y1="205.2" x2="484.8" y2="205.2"/>
		<circle class="st4" cx="441.6" cy="205.2" r="1.4"/>
		<text transform="matrix(1 0 0 1 456.0284 205.2261)" class="st1 st2 st3">PHOTO3V</text>
		<line class="st0" x1="124.8" y1="154.8" x2="160.8" y2="154.8"/>
		<text transform="matrix(1 0 0 1 132.0283 154.8277)" class="st1 st2 st3">PHOTO3V</text>
	</g>
	<g>
		<line class="st0" x1="124.8" y1="219.6" x2="189.6" y2="219.6"/>
		<text transform="matrix(1 0 0 1 132.0283 219.6265)" class="st1 st2 st3">PIEZO3V</text>
	</g>
	<g>
		<line class="st0" x1="261.6" y1="54" x2="304.8" y2="54"/>
		<line class="st0" x1="304.8" y1="54" x2="304.8" y2="18"/>
	</g>
	<g>
		<line class="st5" x1="276" y1="18" x2="276" y2="10.8"/>
		<line class="st6" x1="279.6" y1="16.2" x2="276" y2="10.8"/>
		<line class="st6" x1="276" y1="10.8" x2="272.4" y2="16.2"/>
		<text transform="matrix(1 0 0 1 276.0284 7.2261)" class="st1 st2 st3">3V3</text>
	</g>
	<g>
		<line class="st5" x1="384" y1="18" x2="384" y2="10.8"/>
		<line class="st6" x1="387.6" y1="16.2" x2="384" y2="10.8"/>
		<line class="st6" x1="384" y1="10.8" x2="380.4" y2="16.2"/>
		<text transform="matrix(1 0 0 1 384.0284 7.2261)" class="st1 st2 st3">3V3</text>
	</g>
	<g>
		<line class="st5" x1="441.6" y1="154.8" x2="441.6" y2="147.6"/>
		<line class="st6" x1="445.2" y1="153" x2="441.6" y2="147.6"/>
		<line class="st6" x1="441.6" y1="147.6" x2="438" y2="153"/>
		<text transform="matrix(1 0 0 1 441.628 144.0269)" class="st1 st2 st3">3V3</text>
	</g>
	<g>
		<line class="st5" x1="391.2" y1="183.6" x2="391.2" y2="176.4"/>
		<line class="st5" x1="391.2" y1="169.2" x2="391.2" y2="176.4"/>
		<line class="st6" x1="394.8" y1="180" x2="391.2" y2="172.8"/>
		<line class="st6" x1="391.2" y1="172.8" x2="387.6" y2="180"/>
		<line class="st6" x1="387.6" y1="172.8" x2="391.2" y2="172.8"/>
		<line class="st6" x1="387.6" y1="180" x2="394.8" y2="180"/>
		<line class="st6" x1="391.2" y1="172.8" x2="394.8" y2="172.8"/>
		<text transform="matrix(6.123234e-17 -1 1 6.123234e-17 389.8604 190.8257)" class="st1 st2 st3">D1</text>
		<text transform="matrix(6.123234e-17 -1 1 6.123234e-17 403.1797 192.6265)" class="st1 st2 st3">1N4148</text>
	</g>
	<g>
		<line class="st5" x1="232.8" y1="255.6" x2="232.8" y2="262.8"/>
		<line class="st6" x1="227.4" y1="262.8" x2="238.2" y2="262.8"/>
		<text transform="matrix(1 0 0 1 232.8281 270.0269)" class="st1 st2 st3">GND</text>
	</g>
	<g>
		<line class="st5" x1="276" y1="82.8" x2="276" y2="90"/>
		<line class="st6" x1="270.6" y1="90" x2="281.4" y2="90"/>
		<text transform="matrix(1 0 0 1 276.0284 97.2261)" class="st1 st2 st3">GND</text>
	</g>
	<g>
		<line class="st5" x1="355.2" y1="255.6" x2="355.2" y2="262.8"/>
		<line class="st6" x1="349.8" y1="262.8" x2="360.6" y2="262.8"/>
		<text transform="matrix(1 0 0 1 355.2285 270.0269)" class="st1 st2 st3">GND</text>
	</g>
	<g>
		<line class="st5" x1="384" y1="82.8" x2="384" y2="90"/>
		<line class="st6" x1="378.6" y1="90" x2="389.4" y2="90"/>
		<text transform="matrix(1 0 0 1 384.0284 97.2261)" class="st1 st2 st3">GND</text>
	</g>
	<g>
		<line class="st5" x1="441.6" y1="255.6" x2="441.6" y2="262.8"/>
		<line class="st6" x1="436.2" y1="262.8" x2="447" y2="262.8"/>
		<text transform="matrix(1 0 0 1 441.628 270.0269)" class="st1 st2 st3">GND</text>
	</g>
	<g>
		<line class="st5" x1="175.2" y1="262.8" x2="175.2" y2="270"/>
		<line class="st6" x1="169.8" y1="270" x2="180.6" y2="270"/>
		<text transform="matrix(1 0 0 1 175.2285 277.2271)" class="st1 st2 st3">GND</text>
	</g>
	<g>
		<circle class="st7" cx="355.2" cy="176.4" r="5.8"/>
		<line class="st8" x1="351.6" y1="165.6" x2="351.6" y2="171.4"/>
		<line class="st8" x1="351.6" y1="165.6" x2="355.2" y2="165.6"/>
		<line class="st8" x1="355.2" y1="165.6" x2="358.8" y2="165.6"/>
		<line class="st8" x1="358.8" y1="165.6" x2="358.8" y2="171.4"/>
		<line class="st8" x1="358.8" y1="187.2" x2="358.8" y2="181.5"/>
		<line class="st8" x1="358.8" y1="187.2" x2="355.2" y2="187.2"/>
		<line class="st8" x1="355.2" y1="187.2" x2="351.6" y2="187.2"/>
		<line class="st8" x1="351.6" y1="187.2" x2="351.6" y2="181.5"/>
		<line class="st5" x1="355.2" y1="162" x2="355.2" y2="165.6"/>
		<line class="st5" x1="355.2" y1="190.8" x2="355.2" y2="187.2"/>
		<line class="st5" x1="355.9" y1="167.1" x2="354.5" y2="167.1"/>
		<line class="st5" x1="355.2" y1="166.3" x2="355.2" y2="167.8"/>
		<line class="st5" x1="355.9" y1="185.8" x2="354.5" y2="185.8"/>
		<text transform="matrix(1 0 0 1 338.5274 181.4664)" class="st1 st2 st3">M1</text>
		<text transform="matrix(1 0 0 1 310.4961 188.6675)" class="st1 st2 st3">HAPTIC10MM</text>
	</g>
	<g>
		<line class="st5" x1="16.8" y1="212.4" x2="31.2" y2="212.4"/>
		<text transform="matrix(1 0 0 1 37.8526 214.5875)" class="st1 st2 st9">!RST</text>
		<text transform="matrix(1 0 0 1 21.9619 211.4195)" class="st1 st2 st9">1</text>
		<line class="st5" x1="124.8" y1="140.4" x2="110.4" y2="140.4"/>
		<text transform="matrix(1 0 0 1 72.3731 142.5875)" class="st1 st2 st9">A0/DAC2/IO26</text>
		<text transform="matrix(1 0 0 1 117.0528 139.4195)" class="st1 st2 st9">5</text>
		<line class="st5" x1="124.8" y1="147.6" x2="110.4" y2="147.6"/>
		<text transform="matrix(1 0 0 1 72.3731 149.7867)" class="st1 st2 st9">A1/DAC1/IO25</text>
		<text transform="matrix(1 0 0 1 117.0528 146.6187)" class="st1 st2 st9">6</text>
		<line class="st5" x1="124.8" y1="154.8" x2="110.4" y2="154.8"/>
		<text transform="matrix(1 0 0 1 90.0655 156.9879)" class="st1 st2 st9">A2/I34</text>
		<text transform="matrix(1 0 0 1 117.0528 153.8179)" class="st1 st2 st9">7</text>
		<line class="st5" x1="124.8" y1="162" x2="110.4" y2="162"/>
		<text transform="matrix(1 0 0 1 90.0655 164.1871)" class="st1 st2 st9">A3/I39</text>
		<text transform="matrix(1 0 0 1 117.0528 161.0191)" class="st1 st2 st9">8</text>
		<line class="st5" x1="124.8" y1="169.2" x2="110.4" y2="169.2"/>
		<text transform="matrix(1 0 0 1 90.0655 171.3863)" class="st1 st2 st9">A4/I36</text>
		<text transform="matrix(1 0 0 1 117.0528 168.2183)" class="st1 st2 st9">9</text>
		<line class="st5" x1="124.8" y1="176.4" x2="110.4" y2="176.4"/>
		<text transform="matrix(1 0 0 1 89.0127 178.5875)" class="st1 st2 st9">A5/IO4</text>
		<text transform="matrix(1 0 0 1 117.0528 175.4195)" class="st1 st2 st9">10</text>
		<line class="st5" x1="124.8" y1="190.8" x2="110.4" y2="190.8"/>
		<text transform="matrix(1 0 0 1 86.3692 192.9879)" class="st1 st2 st9">A6/IO14</text>
		<text transform="matrix(1 0 0 1 117.0528 189.8199)" class="st1 st2 st9">19</text>
		<line class="st5" x1="124.8" y1="198" x2="110.4" y2="198"/>
		<text transform="matrix(1 0 0 1 86.3692 200.1871)" class="st1 st2 st9">A7/IO32</text>
		<text transform="matrix(1 0 0 1 117.0528 197.0191)" class="st1 st2 st9">20</text>
		<line class="st5" x1="124.8" y1="205.2" x2="110.4" y2="205.2"/>
		<text transform="matrix(1 0 0 1 86.3692 207.3863)" class="st1 st2 st9">A8/IO15</text>
		<text transform="matrix(1 0 0 1 117.0528 204.2183)" class="st1 st2 st9">21</text>
		<line class="st5" x1="124.8" y1="212.4" x2="110.4" y2="212.4"/>
		<text transform="matrix(1 0 0 1 86.3692 214.5875)" class="st1 st2 st9">A9/IO33</text>
		<text transform="matrix(1 0 0 1 117.0528 211.4195)" class="st1 st2 st9">22</text>
		<line class="st5" x1="124.8" y1="219.6" x2="110.4" y2="219.6"/>
		<text transform="matrix(1 0 0 1 83.7266 221.7867)" class="st1 st2 st9">A10/IO27</text>
		<text transform="matrix(1 0 0 1 117.0528 218.6187)" class="st1 st2 st9">23</text>
		<line class="st5" x1="124.8" y1="226.8" x2="110.4" y2="226.8"/>
		<text transform="matrix(1 0 0 1 84.0791 228.9879)" class="st1 st2 st9">A11/IO12</text>
		<text transform="matrix(1 0 0 1 117.0528 225.8179)" class="st1 st2 st9">24</text>
		<line class="st5" x1="124.8" y1="234" x2="110.4" y2="234"/>
		<text transform="matrix(1 0 0 1 83.7266 236.1871)" class="st1 st2 st9">A12/IO13</text>
		<text transform="matrix(1 0 0 1 117.0528 233.0191)" class="st1 st2 st9">25</text>
		<line class="st5" x1="16.8" y1="198" x2="31.2" y2="198"/>
		<text transform="matrix(1 0 0 1 37.8526 200.1871)" class="st1 st2 st9">I2C_SCL</text>
		<text transform="matrix(1 0 0 1 19.3184 197.0191)" class="st1 st2 st9">18</text>
		<line class="st5" x1="16.8" y1="190.8" x2="31.2" y2="190.8"/>
		<text transform="matrix(1 0 0 1 37.8526 192.9879)" class="st1 st2 st9">I2C_SDA</text>
		<text transform="matrix(1 0 0 1 19.3184 189.8199)" class="st1 st2 st9">17</text>
		<line class="st5" x1="16.8" y1="226.8" x2="31.2" y2="226.8"/>
		<text transform="matrix(1 0 0 1 37.8526 228.9879)" class="st1 st2 st9">IO21</text>
		<text transform="matrix(1 0 0 1 19.3184 225.8179)" class="st1 st2 st9">16</text>
		<line class="st5" x1="124.8" y1="248.4" x2="110.4" y2="248.4"/>
		<text transform="matrix(1 0 0 1 82.9375 250.5875)" class="st1 st2 st9">RX2/IO16</text>
		<text transform="matrix(1 0 0 1 117.0528 247.4195)" class="st1 st2 st9">14</text>
		<line class="st5" x1="16.8" y1="169.2" x2="31.2" y2="169.2"/>
		<text transform="matrix(1 0 0 1 37.8526 171.3863)" class="st1 st2 st9">SPI_MISO</text>
		<text transform="matrix(1 0 0 1 19.3184 168.2183)" class="st1 st2 st9">13</text>
		<line class="st5" x1="16.8" y1="154.8" x2="31.2" y2="154.8"/>
		<text transform="matrix(1 0 0 1 37.8526 156.9879)" class="st1 st2 st9">SPI_SCK</text>
		<text transform="matrix(1 0 0 1 19.6719 153.8179)" class="st1 st2 st9">11</text>
		<line class="st5" x1="16.8" y1="162" x2="31.2" y2="162"/>
		<text transform="matrix(1 0 0 1 37.8526 164.1871)" class="st1 st2 st9">SPI_\MOSI</text>
		<text transform="matrix(1 0 0 1 19.3184 161.0191)" class="st1 st2 st9">12</text>
		<line class="st5" x1="124.8" y1="255.6" x2="110.4" y2="255.6"/>
		<text transform="matrix(1 0 0 1 83.4668 257.7867)" class="st1 st2 st9">TX2/IO17</text>
		<text transform="matrix(1 0 0 1 117.0528 254.6187)" class="st1 st2 st9">15</text>
		<line class="st6" x1="52.8" y1="262.8" x2="110.4" y2="262.8"/>
		<line class="st6" x1="110.4" y1="262.8" x2="110.4" y2="133.2"/>
		<line class="st6" x1="110.4" y1="133.2" x2="31.2" y2="133.2"/>
		<line class="st6" x1="31.2" y1="133.2" x2="31.2" y2="241.2"/>
		<line class="st6" x1="31.2" y1="241.2" x2="31.2" y2="262.8"/>
		<line class="st6" x1="52.8" y1="241.2" x2="31.2" y2="241.2"/>
		<line class="st6" x1="52.8" y1="262.8" x2="31.2" y2="262.8"/>
		<line class="st6" x1="52.8" y1="241.2" x2="52.8" y2="262.8"/>
		<line class="st10" x1="48.5" y1="248.4" x2="52.1" y2="248.4"/>
		<line class="st10" x1="48.5" y1="255.6" x2="52.1" y2="255.6"/>
		<line class="st10" x1="48.5" y1="252" x2="52.1" y2="252"/>
		<line class="st10" x1="48.5" y1="244.8" x2="52.1" y2="244.8"/>
		<line class="st10" x1="48.5" y1="259.2" x2="52.1" y2="259.2"/>
		<text transform="matrix(6.123234e-17 -1 1 6.123234e-17 43.4678 259.2261)" class="st11 st2 st3">USB</text>
		<text transform="matrix(1 0 0 1 32.3167 273.1909)" class="st12"><tspan x="0" y="0" class="st1 st2 st13">I2C pins don&apos;t have pull-up resistors</tspan><tspan x="0" y="4.8" class="st1 st2 st13">USB Serial uses IO3 for RX0, and IO1 for TX0</tspan><tspan x="0" y="9.5" class="st1 st2 st13">IO12 has pull-down resistor (use only for output)</tspan><tspan x="0" y="14.3" class="st1 st2 st13">IO13 is connected to red LED</tspan><tspan x="0" y="19" class="st1 st2 st13">Read the BAT voltage from A13 and double it</tspan></text>
		<text transform="matrix(1 0 0 1 31.2285 129.6265)" class="st1 st2 st3">PCB1A</text>
	</g>
	<g>
		<line class="st5" x1="261.6" y1="39.6" x2="247.2" y2="39.6"/>
		<text transform="matrix(1 0 0 1 234.792 41.7867)" class="st1 st2 st9">3V</text>
		<text transform="matrix(1 0 0 1 253.8526 38.6187)" class="st1 st2 st9">2</text>
		<line class="st5" x1="175.2" y1="39.6" x2="189.6" y2="39.6"/>
		<text transform="matrix(1 0 0 1 196.252 41.7867)" class="st1 st2 st9">BAT</text>
		<text transform="matrix(1 0 0 1 177.7188 38.6187)" class="st1 st2 st9">28</text>
		<line class="st5" x1="175.2" y1="46.8" x2="189.6" y2="46.8"/>
		<text transform="matrix(1 0 0 1 196.252 48.9879)" class="st1 st2 st9">EN</text>
		<text transform="matrix(1 0 0 1 177.7188 45.8199)" class="st1 st2 st9">27</text>
		<line class="st5" x1="261.6" y1="68.4" x2="247.2" y2="68.4"/>
		<text transform="matrix(1 0 0 1 230.0449 70.5875)" class="st1 st2 st9">GND</text>
		<text transform="matrix(1 0 0 1 253.8526 67.4195)" class="st1 st2 st9">4</text>
		<line class="st5" x1="261.6" y1="54" x2="247.2" y2="54"/>
		<text transform="matrix(1 0 0 1 229.5137 56.1871)" class="st1 st2 st9">\USB</text>
		<text transform="matrix(1 0 0 1 253.8526 53.0191)" class="st1 st2 st9">26</text>
		<line class="st6" x1="189.6" y1="75.6" x2="211.2" y2="75.6"/>
		<line class="st6" x1="211.2" y1="75.6" x2="247.2" y2="75.6"/>
		<line class="st6" x1="247.2" y1="75.6" x2="247.2" y2="32.4"/>
		<line class="st6" x1="247.2" y1="32.4" x2="189.6" y2="32.4"/>
		<line class="st6" x1="189.6" y1="32.4" x2="189.6" y2="54"/>
		<line class="st6" x1="189.6" y1="54" x2="189.6" y2="75.6"/>
		<line class="st6" x1="211.2" y1="54" x2="189.6" y2="54"/>
		<line class="st10" x1="206.9" y1="68.4" x2="210.5" y2="68.4"/>
		<line class="st10" x1="206.9" y1="61.2" x2="210.5" y2="61.2"/>
		<line class="st6" x1="211.2" y1="54" x2="211.2" y2="75.6"/>
		<text transform="matrix(6.123234e-17 -1 1 6.123234e-17 201.8682 71.3062)" class="st11 st2 st3">BAT</text>
		<text transform="matrix(1 0 0 1 189.6279 28.8277)" class="st1 st2 st3">PCB1P</text>
	</g>
	<g>
		<line class="st5" x1="60" y1="82.8" x2="60" y2="68.4"/>
		<text transform="matrix(6.123234e-17 -1 1 6.123234e-17 62.1885 61.8023)" class="st1 st2 st9">SDA</text>
		<text transform="matrix(6.123234e-17 -1 1 6.123234e-17 59.0205 80.3355)" class="st1 st2 st9">17</text>
		<line class="st5" x1="67.2" y1="82.8" x2="67.2" y2="68.4"/>
		<text transform="matrix(6.123234e-17 -1 1 6.123234e-17 69.3877 61.8023)" class="st1 st2 st9">SDC</text>
		<text transform="matrix(6.123234e-17 -1 1 6.123234e-17 66.2197 80.3355)" class="st1 st2 st9">18</text>
		<line class="st6" x1="16.8" y1="32.4" x2="117.6" y2="32.4"/>
		<line class="st6" x1="117.6" y1="32.4" x2="117.6" y2="68.4"/>
		<line class="st6" x1="16.8" y1="68.4" x2="16.8" y2="32.4"/>
		<line class="st6" x1="16.8" y1="68.4" x2="117.6" y2="68.4"/>
		<line class="st14" x1="22.2" y1="37.8" x2="112.2" y2="37.8"/>
		<line class="st14" x1="112.2" y1="37.8" x2="112.2" y2="63"/>
		<line class="st14" x1="112.2" y1="63" x2="22.2" y2="63"/>
		<line class="st14" x1="22.2" y1="63" x2="22.2" y2="37.8"/>
		<text transform="matrix(1 0 0 1 16.8281 30.6265)" class="st1 st2 st3">FEATHER-OLED</text>
		<text transform="matrix(1 0 0 1 16.8281 23.4273)" class="st1 st2 st3">PCB2+</text>
	</g>
	<g>
		<line class="st5" x1="384" y1="75.6" x2="384" y2="61.2"/>
		<text transform="matrix(6.123234e-17 -1 1 6.123234e-17 383.0205 70.4937)" class="st1 st2 st9">4</text>
		<line class="st5" x1="384" y1="32.4" x2="384" y2="46.8"/>
		<text transform="matrix(6.123234e-17 -1 1 6.123234e-17 383.0205 40.2027)" class="st1 st2 st9">2</text>
		<text transform="matrix(6.123234e-17 -1 1 6.123234e-17 388.3477 61.2261)" class="st1 st2 st15">GND</text>
		<text transform="matrix(6.123234e-17 -1 1 6.123234e-17 388.3477 46.8257)" class="st1 st2 st15">3V3</text>
		<text transform="matrix(1 0 0 1 384.0284 56.1871)" class="st1 st2 st3">PCB2P</text>
	</g>
	<g>
		<polygon class="st11" points="430.5,175.3 427.9,174.3 429.4,172.8 		"/>
		<polygon class="st11" points="430.1,178.6 427.6,177.5 429,176.1 		"/>
		<rect x="433.7" y="169.2" class="st11" width="2.2" height="14.4"/>
		<line class="st5" x1="441.6" y1="162" x2="441.6" y2="169.2"/>
		<line class="st5" x1="441.6" y1="190.8" x2="441.6" y2="183.6"/>
		<line class="st5" x1="426.5" y1="171.4" x2="430.5" y2="175.3"/>
		<line class="st5" x1="426.1" y1="174.6" x2="430.1" y2="178.6"/>
		<line class="st5" x1="441.6" y1="169.2" x2="435.9" y2="172.1"/>
		<line class="st5" x1="439.5" y1="180.7" x2="441.6" y2="183.6"/>
		<line class="st5" x1="441.6" y1="183.6" x2="438" y2="183.6"/>
		<line class="st5" x1="438" y1="183.6" x2="439.5" y2="180.7"/>
		<line class="st5" x1="438.8" y1="182.2" x2="435.3" y2="180.5"/>
		<line class="st6" x1="438.7" y1="183.3" x2="440.9" y2="183.3"/>
		<line class="st6" x1="440.9" y1="183.3" x2="439.5" y2="181.5"/>
		<line class="st6" x1="439.5" y1="181.5" x2="438.7" y2="182.9"/>
		<line class="st6" x1="438.7" y1="182.9" x2="439.8" y2="182.9"/>
		<line class="st6" x1="439.8" y1="182.9" x2="439.5" y2="182.2"/>
		<text transform="matrix(1 0 0 1 448.8282 176.4273)" class="st1 st2 st3">Q1</text>
		<text transform="matrix(1 0 0 1 448.8282 183.6265)" class="st1 st2 st3">HW5P-1</text>
	</g>
	<g>
		<line class="st5" x1="189.6" y1="219.6" x2="196.8" y2="219.6"/>
		<line class="st5" x1="218.4" y1="219.6" x2="211.2" y2="219.6"/>
		<line class="st6" x1="196.8" y1="222.1" x2="211.2" y2="222.1"/>
		<line class="st6" x1="211.2" y1="217.1" x2="196.8" y2="217.1"/>
		<line class="st6" x1="211.2" y1="222.1" x2="211.2" y2="217.1"/>
		<line class="st6" x1="196.8" y1="222.1" x2="196.8" y2="217.1"/>
		<text transform="matrix(1 0 0 1 193.2285 215.3785)" class="st1 st2 st3">R1</text>
		<text transform="matrix(1 0 0 1 193.2285 228.9879)" class="st1 st2 st3">1k</text>
	</g>
	<g>
		<line class="st5" x1="268.8" y1="190.8" x2="268.8" y2="183.6"/>
		<line class="st5" x1="268.8" y1="162" x2="268.8" y2="169.2"/>
		<line class="st6" x1="271.3" y1="183.6" x2="271.3" y2="169.2"/>
		<line class="st6" x1="266.3" y1="169.2" x2="266.3" y2="183.6"/>
		<line class="st6" x1="271.3" y1="169.2" x2="266.3" y2="169.2"/>
		<line class="st6" x1="271.3" y1="183.6" x2="266.3" y2="183.6"/>
		<text transform="matrix(6.123234e-17 -1 1 6.123234e-17 264.5791 187.2261)" class="st1 st2 st3">R2</text>
		<text transform="matrix(6.123234e-17 -1 1 6.123234e-17 278.1885 187.2261)" class="st1 st2 st3">1k</text>
	</g>
	<g>
		<line class="st5" x1="312" y1="219.6" x2="319.2" y2="219.6"/>
		<line class="st5" x1="340.8" y1="219.6" x2="333.6" y2="219.6"/>
		<line class="st6" x1="319.2" y1="222.1" x2="333.6" y2="222.1"/>
		<line class="st6" x1="333.6" y1="217.1" x2="319.2" y2="217.1"/>
		<line class="st6" x1="333.6" y1="222.1" x2="333.6" y2="217.1"/>
		<line class="st6" x1="319.2" y1="222.1" x2="319.2" y2="217.1"/>
		<text transform="matrix(1 0 0 1 315.628 215.3785)" class="st1 st2 st3">R3</text>
		<text transform="matrix(1 0 0 1 315.628 228.9879)" class="st1 st2 st3">1k</text>
	</g>
	<g>
		<line class="st5" x1="441.6" y1="248.4" x2="441.6" y2="241.2"/>
		<line class="st5" x1="441.6" y1="219.6" x2="441.6" y2="226.8"/>
		<line class="st6" x1="444.1" y1="241.2" x2="444.1" y2="226.8"/>
		<line class="st6" x1="439.1" y1="226.8" x2="439.1" y2="241.2"/>
		<line class="st6" x1="444.1" y1="226.8" x2="439.1" y2="226.8"/>
		<line class="st6" x1="444.1" y1="241.2" x2="439.1" y2="241.2"/>
		<text transform="matrix(6.123234e-17 -1 1 6.123234e-17 437.3799 244.8257)" class="st1 st2 st3">R4</text>
		<text transform="matrix(6.123234e-17 -1 1 6.123234e-17 450.9883 244.8257)" class="st1 st2 st3">1k5</text>
	</g>
	<g>
		<line class="st5" x1="175.2" y1="262.8" x2="175.2" y2="255.6"/>
		<line class="st5" x1="175.2" y1="234" x2="175.2" y2="241.2"/>
		<line class="st6" x1="171.6" y1="255.6" x2="171.6" y2="248.4"/>
		<line class="st6" x1="171.6" y1="248.4" x2="171.6" y2="241.2"/>
		<line class="st6" x1="168.7" y1="250.2" x2="168.7" y2="248.4"/>
		<line class="st6" x1="168.7" y1="248.4" x2="168.7" y2="246.6"/>
		<line class="st6" x1="171.6" y1="248.4" x2="168.7" y2="248.4"/>
		<text transform="matrix(6.123234e-17 -1 1 6.123234e-17 165.1475 255.6265)" class="st1 st2 st13">SW1</text>
		<text transform="matrix(6.123234e-17 -1 1 6.123234e-17 181.708 255.6265)" class="st1 st2 st13">ALARM_OFF</text>
	</g>
	<g>
		<rect x="224.9" y="212.4" class="st11" width="2.2" height="14.4"/>
		<line class="st5" x1="218.4" y1="219.6" x2="225.6" y2="219.6"/>
		<line class="st5" x1="232.8" y1="205.2" x2="232.8" y2="212.4"/>
		<line class="st5" x1="232.8" y1="234" x2="232.8" y2="226.8"/>
		<line class="st5" x1="232.8" y1="212.4" x2="227.1" y2="215.3"/>
		<line class="st5" x1="230.7" y1="223.9" x2="232.8" y2="226.8"/>
		<line class="st5" x1="232.8" y1="226.8" x2="229.2" y2="226.8"/>
		<line class="st5" x1="229.2" y1="226.8" x2="230.7" y2="223.9"/>
		<line class="st5" x1="230" y1="225.4" x2="226.5" y2="223.7"/>
		<line class="st6" x1="229.9" y1="226.5" x2="232.1" y2="226.5"/>
		<line class="st6" x1="232.1" y1="226.5" x2="230.7" y2="224.7"/>
		<line class="st6" x1="230.7" y1="224.7" x2="229.9" y2="226.1"/>
		<line class="st6" x1="229.9" y1="226.1" x2="231" y2="226.1"/>
		<line class="st6" x1="231" y1="226.1" x2="230.7" y2="225.4"/>
		<text transform="matrix(1 0 0 1 240.0283 219.6265)" class="st1 st2 st3">T1</text>
		<text transform="matrix(1 0 0 1 240.0283 226.8277)" class="st1 st2 st3">2N2222</text>
	</g>
	<g>
		<rect x="347.3" y="212.4" class="st11" width="2.2" height="14.4"/>
		<line class="st5" x1="340.8" y1="219.6" x2="348" y2="219.6"/>
		<line class="st5" x1="355.2" y1="205.2" x2="355.2" y2="212.4"/>
		<line class="st5" x1="355.2" y1="234" x2="355.2" y2="226.8"/>
		<line class="st5" x1="355.2" y1="212.4" x2="349.5" y2="215.3"/>
		<line class="st5" x1="353.1" y1="223.9" x2="355.2" y2="226.8"/>
		<line class="st5" x1="355.2" y1="226.8" x2="351.6" y2="226.8"/>
		<line class="st5" x1="351.6" y1="226.8" x2="353.1" y2="223.9"/>
		<line class="st5" x1="352.4" y1="225.4" x2="348.9" y2="223.7"/>
		<line class="st6" x1="352.3" y1="226.5" x2="354.5" y2="226.5"/>
		<line class="st6" x1="354.5" y1="226.5" x2="353.1" y2="224.7"/>
		<line class="st6" x1="353.1" y1="224.7" x2="352.3" y2="226.1"/>
		<line class="st6" x1="352.3" y1="226.1" x2="353.4" y2="226.1"/>
		<line class="st6" x1="353.4" y1="226.1" x2="353.1" y2="225.4"/>
		<text transform="matrix(1 0 0 1 362.4287 219.6265)" class="st1 st2 st3">T2</text>
		<text transform="matrix(1 0 0 1 362.4287 226.8277)" class="st1 st2 st3">2N2222</text>
	</g>
	<g>
		<line class="st5" x1="304.8" y1="18" x2="304.8" y2="10.8"/>
		<line class="st6" x1="308.4" y1="16.2" x2="304.8" y2="10.8"/>
		<line class="st6" x1="304.8" y1="10.8" x2="301.2" y2="16.2"/>
		<text transform="matrix(1 0 0 1 304.8282 7.2261)" class="st1 st2 st3">USB_5V</text>
	</g>
	<g>
		<line class="st5" x1="232.8" y1="154.8" x2="232.8" y2="147.6"/>
		<line class="st6" x1="236.4" y1="153" x2="232.8" y2="147.6"/>
		<line class="st6" x1="232.8" y1="147.6" x2="229.2" y2="153"/>
		<text transform="matrix(1 0 0 1 232.8281 144.0269)" class="st1 st2 st3">USB_5V</text>
	</g>
	<g>
		<line class="st5" x1="268.8" y1="154.8" x2="268.8" y2="147.6"/>
		<line class="st6" x1="272.4" y1="153" x2="268.8" y2="147.6"/>
		<line class="st6" x1="268.8" y1="147.6" x2="265.2" y2="153"/>
		<text transform="matrix(1 0 0 1 268.8282 144.0269)" class="st1 st2 st3">USB_5V</text>
	</g>
	<g>
		<line class="st5" x1="355.2" y1="154.8" x2="355.2" y2="147.6"/>
		<line class="st6" x1="358.8" y1="153" x2="355.2" y2="147.6"/>
		<line class="st6" x1="355.2" y1="147.6" x2="351.6" y2="153"/>
		<text transform="matrix(1 0 0 1 355.2285 144.0269)" class="st1 st2 st3">USB_5V</text>
	</g>
	<g>
		<line class="st5" x1="391.2" y1="154.8" x2="391.2" y2="147.6"/>
		<line class="st6" x1="394.8" y1="153" x2="391.2" y2="147.6"/>
		<line class="st6" x1="391.2" y1="147.6" x2="387.6" y2="153"/>
		<text transform="matrix(1 0 0 1 391.2285 144.0269)" class="st1 st2 st3">USB_5V</text>
	</g>
	<g>
		<line class="st5" x1="232.8" y1="162" x2="232.8" y2="169.2"/>
		<line class="st5" x1="232.8" y1="190.8" x2="232.8" y2="183.6"/>
		<line class="st6" x1="240" y1="174.6" x2="225.6" y2="174.6"/>
		<line class="st6" x1="225.6" y1="174.6" x2="225.6" y2="178.2"/>
		<line class="st6" x1="225.6" y1="178.2" x2="240" y2="178.2"/>
		<line class="st6" x1="240" y1="178.2" x2="240" y2="174.6"/>
		<line class="st6" x1="225.6" y1="172.8" x2="232.8" y2="172.8"/>
		<line class="st6" x1="232.8" y1="172.8" x2="240" y2="172.8"/>
		<line class="st6" x1="225.6" y1="180" x2="232.8" y2="180"/>
		<line class="st6" x1="232.8" y1="180" x2="240" y2="180"/>
		<line class="st16" x1="232.8" y1="169.2" x2="232.8" y2="172.8"/>
		<line class="st16" x1="232.8" y1="183.6" x2="232.8" y2="180"/>
		<text transform="matrix(1 0 0 1 236.4287 169.2261)" class="st1 st2 st3">X1</text>
		<text transform="matrix(1 0 0 1 236.4287 187.2261)" class="st1 st2 st3">PIEZO</text>
	</g>
</g>
</svg>
